HIERARCHY
ROOT hip
{
  OFFSET 0 0 0
  CHANNELS 6 Xposition Yposition Zposition Zrotation Yrotation Xrotation
  JOINT abdomen
  {
    OFFSET 0 20.6881 -0.73152
    CHANNELS 3 Zrotation Xrotation Yrotation
    JOINT chest
    {
      OFFSET 0 11.7043 -0.48768
      CHANNELS 3 Zrotation Xrotation Yrotation
      JOINT neck
      {
        OFFSET 0 22.1894 -2.19456
        CHANNELS 3 Zrotation Xrotation Yrotation
        JOINT head
        {
          OFFSET -0.24384 7.07133 1.2192
          CHANNELS 3 Zrotation Xrotation Yrotation
          JOINT leftEye
          {
            OFFSET 4.14528 8.04674 8.04672
            CHANNELS 3 Zrotation Xrotation Yrotation
            End Site
            {
              OFFSET 1 0 0
            }
          }
          JOINT rightEye
          {
            OFFSET -3.6576 8.04674 8.04672
            CHANNELS 3 Zrotation Xrotation Yrotation
            End Site
            {
              OFFSET 1 0 0
            }
          }
        }
      }
      JOINT rCollar
      {
        OFFSET -2.68224 19.2634 -4.8768
        CHANNELS 3 Zrotation Xrotation Yrotation
        JOINT rShldr
        {
          OFFSET -8.77824 -1.95073 1.46304
          CHANNELS 3 Zrotation Xrotation Yrotation
          JOINT rForeArm
          {
            OFFSET -28.1742 -1.7115 0.48768
            CHANNELS 3 Zrotation Xrotation Yrotation
            JOINT rHand
            {
              OFFSET -22.5879 0.773209 7.07136
              CHANNELS 3 Zrotation Xrotation Yrotation
              JOINT rThumb1
              {
                OFFSET -1.2192 -0.487915 3.41376
                CHANNELS 3 Zrotation Xrotation Yrotation
                JOINT rThumb2
                {
                  OFFSET -3.37035 -0.52449 3.41376
                  CHANNELS 3 Zrotation Xrotation Yrotation
                  End Site
                  {
                    OFFSET -1.78271 -1.18214 1.43049
                  }
                }
              }
              JOINT rIndex1
              {
                OFFSET -7.75947 0.938293 5.60832
                CHANNELS 3 Zrotation Xrotation Yrotation
                JOINT rIndex2
                {
                  OFFSET -2.54057 -0.884171 1.56538
                  CHANNELS 3 Zrotation Xrotation Yrotation
                  End Site
                  {
                    OFFSET -1.62519 -0.234802 1.16502
                  }
                }
              }
              JOINT rMid1
              {
                OFFSET -8.24714 1.18213 3.41376
                CHANNELS 3 Zrotation Xrotation Yrotation
                JOINT rMid2
                {
                  OFFSET -3.10165 -0.590103 1.0647
                  CHANNELS 3 Zrotation Xrotation Yrotation
                  End Site
                  {
                    OFFSET -2.48547 -0.328903 0.83742
                  }
                }
              }
              JOINT rRing1
              {
                OFFSET -8.82822 0.546677 1.51678
                CHANNELS 3 Zrotation Xrotation Yrotation
                JOINT rRing2
                {
                  OFFSET -2.60934 -0.819778 -0.0198488
                  CHANNELS 3 Zrotation Xrotation Yrotation
                  End Site
                  {
                    OFFSET -2.33842 -0.294052 0.168128
                  }
                }
              }
              JOINT rPinky1
              {
                OFFSET -8.27202 -0.0477905 -0.4584
                CHANNELS 3 Zrotation Xrotation Yrotation
                JOINT rPinky2
                {
                  OFFSET -1.82734 -0.647385 -0.700984
                  CHANNELS 3 Zrotation Xrotation Yrotation
                  End Site
                  {
                    OFFSET -1.69225 -0.51767 -0.607171
                  }
                }
              }
            }
          }
        }
      }
      JOINT lCollar
      {
        OFFSET 2.68224 19.2634 -4.8768
        CHANNELS 3 Zrotation Xrotation Yrotation
        JOINT lShldr
        {
          OFFSET 8.77824 -1.95073 1.46304
          CHANNELS 3 Zrotation Xrotation Yrotation
          JOINT lForeArm
          {
            OFFSET 28.1742 -1.7115 0.48768
            CHANNELS 3 Zrotation Xrotation Yrotation
            JOINT lHand
            {
              OFFSET 22.5879 0.773209 7.07136
              CHANNELS 3 Zrotation Xrotation Yrotation
              JOINT lThumb1
              {
                OFFSET 1.2192 -0.487915 3.41376
                CHANNELS 3 Zrotation Xrotation Yrotation
                JOINT lThumb2
                {
                  OFFSET 3.37035 -0.52449 3.41376
                  CHANNELS 3 Zrotation Xrotation Yrotation
                  End Site
                  {
                    OFFSET 1.78271 -1.18214 1.43049
                  }
                }
              }
              JOINT lIndex1
              {
                OFFSET 7.75947 0.938293 5.60832
                CHANNELS 3 Zrotation Xrotation Yrotation
                JOINT lIndex2
                {
                  OFFSET 2.54057 -0.884171 1.56538
                  CHANNELS 3 Zrotation Xrotation Yrotation
                  End Site
                  {
                    OFFSET 1.62519 -0.234802 1.16502
                  }
                }
              }
              JOINT lMid1
              {
                OFFSET 8.24714 1.18213 3.41376
                CHANNELS 3 Zrotation Xrotation Yrotation
                JOINT lMid2
                {
                  OFFSET 3.10165 -0.590103 1.0647
                  CHANNELS 3 Zrotation Xrotation Yrotation
                  End Site
                  {
                    OFFSET 2.48547 -0.328903 0.83742
                  }
                }
              }
              JOINT lRing1
              {
                OFFSET 8.82822 0.546677 1.51678
                CHANNELS 3 Zrotation Xrotation Yrotation
                JOINT lRing2
                {
                  OFFSET 2.60934 -0.819778 -0.0198488
                  CHANNELS 3 Zrotation Xrotation Yrotation
                  End Site
                  {
                    OFFSET 2.33842 -0.294052 0.168128
                  }
                }
              }
              JOINT lPinky1
              {
                OFFSET 8.27202 -0.0477905 -0.4584
                CHANNELS 3 Zrotation Xrotation Yrotation
                JOINT lPinky2
                {
                  OFFSET 1.82734 -0.647385 -0.700984
                  CHANNELS 3 Zrotation Xrotation Yrotation
                  End Site
                  {
                    OFFSET 1.69225 -0.51767 -0.607171
                  }
                }
              }
            }
          }
        }
      }
    }
  }
  JOINT rButtock
  {
    OFFSET -8.77824 4.35084 1.2192
    CHANNELS 3 Zrotation Xrotation Yrotation
    JOINT rThigh
    {
      OFFSET 0 -1.70687 -2.19456
      CHANNELS 3 Zrotation Xrotation Yrotation
      JOINT rShin
      {
        OFFSET 0 -36.8199 0.73152
        CHANNELS 3 Zrotation Xrotation Yrotation
        JOINT rFoot
        {
          OFFSET 0.73152 -45.1104 -5.12064
          CHANNELS 3 Zrotation Xrotation Yrotation
          End Site
          {
            OFFSET -1.1221 -3.69964 12.103
          }
        }
      }
    }
  }
  JOINT lButtock
  {
    OFFSET 8.77824 4.35084 1.2192
    CHANNELS 3 Zrotation Xrotation Yrotation
    JOINT lThigh
    {
      OFFSET 0 -1.70687 -2.19456
      CHANNELS 3 Zrotation Xrotation Yrotation
      JOINT lShin
      {
        OFFSET 0 -36.8199 0.73152
        CHANNELS 3 Zrotation Xrotation Yrotation
        JOINT lFoot
        {
          OFFSET -0.73152 -45.1104 -5.12064
          CHANNELS 3 Zrotation Xrotation Yrotation
          End Site
          {
            OFFSET 1.1221 -3.69964 12.103
          }
        }
      }
    }
  }
}
MOTION
Frames:	4
Frame Time:	0.00833333
-21.3451 82.2556 296.184 0.0 0.0 0.0 -4.7731 0.0092573 -0.128168 -1.31327 0.0404296 -0.22688 -3.65265e-14 -1.59028e-15 -7.45442e-16 -1.12037e-13 3.18055e-15 -2.04065e-15 -0.0 0.0 0.0 -0.0 0.0 0.0 -1.86897e-14 -3.47485e-16 -1.49089e-16 -3.9202e-13 -7.45443e-15 -7.95139e-15 -6.78691e-12 1.78429e-12 -7.95139e-14 -7.75844e-11 -3.35357e-12 -1.58392e-12 -1.83023e-10 -3.40697e-12 -3.57494e-12 -3.16079e-10 -5.89039e-12 -6.17584e-12 -1.83016e-10 -3.40558e-12 -3.5813e-12 7.73091 5.47488 0.417314 -1.83022e-10 -3.40717e-12 -3.57494e-12 2.90554 0.965183 0.102902 -1.83019e-10 -3.40677e-12 -3.57733e-12 10.2786 0.731801 0.0259123 -1.83027e-10 -3.40518e-12 -3.57176e-12 2.22167 -0.733487 -0.20892 -1.87824e-14 -3.48261e-16 -4.96962e-16 -3.94604e-13 -7.33019e-15 -9.74045e-15 -6.76519e-12 -2.28105e-12 -7.63333e-14 -7.7579e-11 7.14805e-13 -1.56801e-12 -1.82974e-10 -3.40184e-12 -3.57176e-12 -3.15977e-10 -5.87448e-12 -6.15755e-12 -1.82978e-10 -3.39842e-12 -3.5495e-12 -7.73091 5.47488 -0.417314 -1.82974e-10 -3.4019e-12 -3.56858e-12 -2.90554 0.965183 -0.102902 -1.8298e-10 -3.4016e-12 -3.57017e-12 -10.2786 0.731801 -0.0259123 -1.82972e-10 -3.40081e-12 -3.5813e-12 -2.22167 -0.733487 0.20892 -2.03217e-16 0.0 -3.88251e-19 -3.15564 -1.94856 0.0346867 -0.00821645 -2.07871 -0.0672486 -0.471686 4.00263 0.134435 2.03217e-16 0.0 3.88251e-19 -4.06246 -11.8419 0.547557 -0.016107 15.834 -0.442639 0.591967 -4.01618 0.0187892
-21.5882 80.6942 285.961 -178.498 -10.2713 -171.568 -4.49278 -1.61769 -1.65918 -0.512908 1.35942 -0.644833 -1.64594 5.17772 -1.0351 4.23527 -13.3968 -0.728318 -0.0 0.0 0.0 -0.0 0.0 0.0 -9.98286e-15 -2.09263e-14 -1.3287e-13 22.6095 -0.322945 -0.83966 -3.64845 -1.55841 5.80182 0.166557 9.07431 1.21831 9.50619e-11 -2.45147e-10 1.94322e-10 1.67444e-10 -4.20604e-10 3.29216e-10 9.50682e-11 -2.45145e-10 1.94316e-10 7.73091 5.47488 0.417314 9.5062e-11 -2.45146e-10 1.94324e-10 2.90554 0.965183 0.102902 9.50677e-11 -2.45146e-10 1.94323e-10 10.2786 0.731801 0.0259123 9.50573e-11 -2.45145e-10 1.9433e-10 2.22167 -0.733487 -0.20892 -1.00617e-14 -2.09266e-14 -1.33175e-13 -23.1947 2.89165 -2.27552 3.54363 -1.49568 -5.6528 -0.0064409 1.80458 -0.253181 2.37419e-10 8.74109e-10 -2.13881e-10 4.08482e-10 1.50996e-09 -3.72131e-10 2.37417e-10 8.74111e-10 -2.13865e-10 -7.73091 5.47488 -0.417314 2.3742e-10 8.74108e-10 -2.13883e-10 -2.90554 0.965183 -0.102902 2.37415e-10 8.74109e-10 -2.13882e-10 -10.2786 0.731801 -0.0259123 2.37423e-10 8.7411e-10 -2.13891e-10 -2.22167 -0.733487 0.20892 -2.03217e-16 0.0 -3.88251e-19 -4.0717 -12.2126 -0.95459 0.0658126 8.1104 0.179241 -0.401681 -0.0865645 1.24932 2.03217e-16 0.0 3.88251e-19 -3.42429 -12.6722 -0.633676 -0.107335 20.3624 -0.662606 0.0703415 -7.67261 -3.91734
-21.5993 80.6987 286.021 -178.326 -10.4466 -171.675 -4.29356 -3.33255 -3.28214 0.350369 2.74768 -1.08717 -3.17674 10.6484 -2.15969 8.29941 -27.5529 -1.64748 -0.0 0.0 0.0 -0.0 0.0 0.0 7.05354e-16 -3.87167e-14 -2.79305e-13 46.503 -0.680038 -1.74129 -7.16238 -3.15147 11.9461 -0.0980705 18.6566 2.61263 4.40386e-10 -5.10652e-10 3.60414e-10 7.66044e-10 -8.74965e-10 6.08025e-10 4.40392e-10 -5.10649e-10 3.60408e-10 7.73091 5.47488 0.417314 4.40386e-10 -5.1065e-10 3.60418e-10 2.90554 0.965183 0.102902 4.40393e-10 -5.1065e-10 3.60418e-10 10.2786 0.731801 0.0259123 4.40381e-10 -5.10651e-10 3.60427e-10 2.22167 -0.733487 -0.20892 6.42698e-16 -3.87165e-14 -2.79563e-13 -47.4596 5.93883 -4.68073 6.96905 -3.02735 -11.6386 0.00431282 3.74617 -0.526455 7.00739e-10 1.88537e-09 -3.91824e-10 1.20722e-09 3.25715e-09 -6.82437e-10 7.00738e-10 1.88537e-09 -3.91815e-10 -7.73091 5.47488 -0.417314 7.00742e-10 1.88537e-09 -3.91831e-10 -2.90554 0.965183 -0.102902 7.00736e-10 1.88537e-09 -3.91828e-10 -10.2786 0.731801 -0.0259123 7.00744e-10 1.88537e-09 -3.91834e-10 -2.22167 -0.733487 0.20892 -2.03217e-16 0.0 -3.88251e-19 -5.46062 -23.0514 -2.12986 0.0444181 18.8848 0.460998 -0.152508 -4.4372 2.43722 2.03217e-16 0.0 3.88251e-19 -2.7916 -13.5431 -1.90091 -0.161819 25.1464 -0.914271 -1.0351 -11.4596 -8.16652
-21.6314 80.7028 286.067 -178.303 -10.4833 -171.754 -4.19347 -4.85706 -4.73627 1.14568 3.99632 -1.4838 -4.35884 15.5125 -3.20966 11.4173 -40.1601 -2.78163 -0.0 0.0 0.0 -0.0 0.0 0.0 7.4308e-15 -6.20839e-14 -3.98313e-13 67.8 -0.968003 -2.5193 -10.0122 -4.48382 17.4541 -0.779102 27.1705 4.05755 6.51231e-10 -7.28627e-10 5.90117e-10 1.13449e-09 -1.25003e-09 1e-09 6.51236e-10 -7.28623e-10 5.90111e-10 7.73091 5.47488 0.417314 6.51231e-10 -7.28623e-10 5.90123e-10 2.90554 0.965183 0.102902 6.5124e-10 -7.28624e-10 5.90124e-10 10.2786 0.731801 0.0259123 6.51227e-10 -7.28625e-10 5.90134e-10 2.22167 -0.733487 -0.20892 7.37992e-15 -6.20832e-14 -3.98532e-13 -68.8903 8.61992 -6.89614 9.75774 -4.31265 -17.0022 0.0287034 5.41333 -0.762569 1.07821e-09 2.62913e-09 -6.34501e-10 1.8574e-09 4.54163e-09 -1.10408e-09 1.07821e-09 2.62913e-09 -6.34497e-10 -7.73091 5.47488 -0.417314 1.07821e-09 2.62913e-09 -6.34512e-10 -2.90554 0.965183 -0.102902 1.0782e-09 2.62913e-09 -6.34507e-10 -10.2786 0.731801 -0.0259123 1.07821e-09 2.62913e-09 -6.34511e-10 -2.22167 -0.733487 0.20892 -2.03217e-16 0.0 -3.88251e-19 -7.13883 -32.6993 -3.40906 -0.07698 28.4866 0.758603 0.219046 -8.24969 3.51618 2.03217e-16 0.0 3.88251e-19 -2.2536 -14.315 -3.02039 -0.169293 29.4171 -1.16171 -2.51327 -14.72 -12.0865
